<mxfile host="app.diagrams.net" agent="Mozilla/5.0 (Windows NT 10.0; Win64; x64) AppleWebKit/537.36 (KHTML, like Gecko) Chrome/131.0.0.0 Safari/537.36" version="24.8.4">
  <diagram name="Page-1" id="LHH_VBNM6zs2dTFXqeOy">
    <mxGraphModel dx="1373" dy="924" grid="1" gridSize="10" guides="1" tooltips="1" connect="1" arrows="1" fold="1" page="1" pageScale="1" pageWidth="850" pageHeight="1100" math="0" shadow="0">
      <root>
        <mxCell id="0" />
        <mxCell id="1" parent="0" />
        <mxCell id="KyFGuPEpn72uhVAn8gob-54" value="" style="rounded=0;whiteSpace=wrap;html=1;" vertex="1" parent="1">
          <mxGeometry x="60" y="25" width="1130" height="585" as="geometry" />
        </mxCell>
        <mxCell id="KyFGuPEpn72uhVAn8gob-1" value="&lt;font style=&quot;font-size: 11px;&quot;&gt;.osu&lt;/font&gt;&lt;div style=&quot;font-size: 11px;&quot;&gt;&lt;font style=&quot;font-size: 11px;&quot;&gt;file&lt;/font&gt;&lt;/div&gt;" style="rounded=0;whiteSpace=wrap;html=1;fillColor=#f8cecc;strokeColor=#b85450;fontSize=11;" vertex="1" parent="1">
          <mxGeometry x="120" y="70" width="50" height="460" as="geometry" />
        </mxCell>
        <mxCell id="KyFGuPEpn72uhVAn8gob-43" style="edgeStyle=orthogonalEdgeStyle;rounded=0;orthogonalLoop=1;jettySize=auto;html=1;exitX=1;exitY=0.5;exitDx=0;exitDy=0;entryX=0;entryY=0.25;entryDx=0;entryDy=0;shape=flexArrow;fillColor=#dae8fc;strokeColor=#6c8ebf;" edge="1" parent="1" source="KyFGuPEpn72uhVAn8gob-3" target="KyFGuPEpn72uhVAn8gob-41">
          <mxGeometry relative="1" as="geometry" />
        </mxCell>
        <mxCell id="KyFGuPEpn72uhVAn8gob-3" value="&lt;span style=&quot;font-size: 11px;&quot;&gt;Feature&lt;/span&gt;&lt;div style=&quot;font-size: 11px;&quot;&gt;&lt;span style=&quot;font-size: 11px;&quot;&gt;Hashing&lt;/span&gt;&lt;/div&gt;" style="rounded=0;whiteSpace=wrap;html=1;fillColor=#dae8fc;strokeColor=#6c8ebf;fontSize=11;" vertex="1" parent="1">
          <mxGeometry x="248" y="80" width="50" height="210" as="geometry" />
        </mxCell>
        <mxCell id="KyFGuPEpn72uhVAn8gob-4" value="Percentile&lt;div&gt;Average&lt;/div&gt;" style="rounded=0;whiteSpace=wrap;html=1;fillColor=#d5e8d4;strokeColor=#82b366;fontSize=11;" vertex="1" parent="1">
          <mxGeometry x="248" y="310" width="50" height="210" as="geometry" />
        </mxCell>
        <mxCell id="KyFGuPEpn72uhVAn8gob-5" value="" style="shape=flexArrow;endArrow=classic;html=1;rounded=0;exitX=1;exitY=0.25;exitDx=0;exitDy=0;entryX=0;entryY=0.5;entryDx=0;entryDy=0;fillColor=#dae8fc;strokeColor=#6c8ebf;" edge="1" parent="1" source="KyFGuPEpn72uhVAn8gob-1" target="KyFGuPEpn72uhVAn8gob-3">
          <mxGeometry width="50" height="50" relative="1" as="geometry">
            <mxPoint x="470" y="290" as="sourcePoint" />
            <mxPoint x="520" y="240" as="targetPoint" />
          </mxGeometry>
        </mxCell>
        <mxCell id="KyFGuPEpn72uhVAn8gob-6" value="" style="shape=flexArrow;endArrow=classic;html=1;rounded=0;exitX=1;exitY=0.75;exitDx=0;exitDy=0;entryX=0;entryY=0.5;entryDx=0;entryDy=0;fillColor=#d5e8d4;strokeColor=#82b366;" edge="1" parent="1" source="KyFGuPEpn72uhVAn8gob-1" target="KyFGuPEpn72uhVAn8gob-4">
          <mxGeometry width="50" height="50" relative="1" as="geometry">
            <mxPoint x="400" y="430" as="sourcePoint" />
            <mxPoint x="450" y="380" as="targetPoint" />
          </mxGeometry>
        </mxCell>
        <mxCell id="KyFGuPEpn72uhVAn8gob-7" value="Length&lt;div&gt;N&lt;/div&gt;" style="text;html=1;align=center;verticalAlign=middle;whiteSpace=wrap;rounded=0;" vertex="1" parent="1">
          <mxGeometry x="115" y="40" width="60" height="30" as="geometry" />
        </mxCell>
        <mxCell id="KyFGuPEpn72uhVAn8gob-8" value="Size&lt;div&gt;512&lt;/div&gt;" style="text;html=1;align=center;verticalAlign=middle;whiteSpace=wrap;rounded=0;" vertex="1" parent="1">
          <mxGeometry x="243" y="50" width="60" height="30" as="geometry" />
        </mxCell>
        <mxCell id="KyFGuPEpn72uhVAn8gob-15" style="edgeStyle=orthogonalEdgeStyle;rounded=0;orthogonalLoop=1;jettySize=auto;html=1;exitX=1;exitY=0.5;exitDx=0;exitDy=0;entryX=0;entryY=0.5;entryDx=0;entryDy=0;shape=flexArrow;fillColor=#ffe6cc;strokeColor=#d79b00;" edge="1" parent="1" source="KyFGuPEpn72uhVAn8gob-10" target="KyFGuPEpn72uhVAn8gob-14">
          <mxGeometry relative="1" as="geometry" />
        </mxCell>
        <mxCell id="KyFGuPEpn72uhVAn8gob-10" value="Positional&lt;div&gt;Encoding&lt;/div&gt;" style="rounded=0;whiteSpace=wrap;html=1;fillColor=#ffe6cc;strokeColor=#d79b00;fontSize=11;" vertex="1" parent="1">
          <mxGeometry x="330" y="310" width="50" height="210" as="geometry" />
        </mxCell>
        <mxCell id="KyFGuPEpn72uhVAn8gob-11" value="" style="shape=flexArrow;endArrow=classic;html=1;rounded=0;exitX=1;exitY=0.5;exitDx=0;exitDy=0;entryX=0;entryY=0.5;entryDx=0;entryDy=0;fillColor=#ffe6cc;strokeColor=#d79b00;" edge="1" parent="1" source="KyFGuPEpn72uhVAn8gob-4" target="KyFGuPEpn72uhVAn8gob-10">
          <mxGeometry width="50" height="50" relative="1" as="geometry">
            <mxPoint x="370" y="620" as="sourcePoint" />
            <mxPoint x="420" y="570" as="targetPoint" />
          </mxGeometry>
        </mxCell>
        <mxCell id="KyFGuPEpn72uhVAn8gob-12" value="Size&lt;div&gt;512&lt;/div&gt;" style="text;html=1;align=center;verticalAlign=middle;whiteSpace=wrap;rounded=0;" vertex="1" parent="1">
          <mxGeometry x="325" y="280" width="60" height="30" as="geometry" />
        </mxCell>
        <mxCell id="KyFGuPEpn72uhVAn8gob-18" style="edgeStyle=orthogonalEdgeStyle;rounded=0;orthogonalLoop=1;jettySize=auto;html=1;exitX=1;exitY=0.5;exitDx=0;exitDy=0;entryX=0;entryY=0.5;entryDx=0;entryDy=0;shape=flexArrow;fillColor=#e1d5e7;strokeColor=#9673a6;" edge="1" parent="1" source="KyFGuPEpn72uhVAn8gob-14" target="KyFGuPEpn72uhVAn8gob-17">
          <mxGeometry relative="1" as="geometry" />
        </mxCell>
        <mxCell id="KyFGuPEpn72uhVAn8gob-14" value="Multi-&lt;div&gt;head&lt;/div&gt;&lt;div&gt;Attention&lt;/div&gt;" style="rounded=0;whiteSpace=wrap;html=1;fillColor=#ffe6cc;strokeColor=#d79b00;fontSize=11;" vertex="1" parent="1">
          <mxGeometry x="410" y="310" width="50" height="210" as="geometry" />
        </mxCell>
        <mxCell id="KyFGuPEpn72uhVAn8gob-16" value="Size&lt;div&gt;512&lt;/div&gt;" style="text;html=1;align=center;verticalAlign=middle;whiteSpace=wrap;rounded=0;" vertex="1" parent="1">
          <mxGeometry x="405" y="280" width="60" height="30" as="geometry" />
        </mxCell>
        <mxCell id="KyFGuPEpn72uhVAn8gob-17" value="Linear" style="rounded=0;whiteSpace=wrap;html=1;fillColor=#e1d5e7;strokeColor=#9673a6;fontSize=11;" vertex="1" parent="1">
          <mxGeometry x="490" y="310" width="50" height="210" as="geometry" />
        </mxCell>
        <mxCell id="KyFGuPEpn72uhVAn8gob-19" value="Size&lt;div&gt;512&lt;/div&gt;" style="text;html=1;align=center;verticalAlign=middle;whiteSpace=wrap;rounded=0;" vertex="1" parent="1">
          <mxGeometry x="485" y="280" width="60" height="30" as="geometry" />
        </mxCell>
        <mxCell id="KyFGuPEpn72uhVAn8gob-20" style="edgeStyle=orthogonalEdgeStyle;rounded=0;orthogonalLoop=1;jettySize=auto;html=1;exitX=1;exitY=0.5;exitDx=0;exitDy=0;entryX=0;entryY=0.5;entryDx=0;entryDy=0;shape=flexArrow;fillColor=#e1d5e7;strokeColor=#9673a6;" edge="1" parent="1" target="KyFGuPEpn72uhVAn8gob-21" source="KyFGuPEpn72uhVAn8gob-17">
          <mxGeometry relative="1" as="geometry">
            <mxPoint x="540" y="415" as="sourcePoint" />
          </mxGeometry>
        </mxCell>
        <mxCell id="KyFGuPEpn72uhVAn8gob-21" value="Linear" style="rounded=0;whiteSpace=wrap;html=1;fillColor=#e1d5e7;strokeColor=#9673a6;fontSize=11;" vertex="1" parent="1">
          <mxGeometry x="570" y="330" width="50" height="170" as="geometry" />
        </mxCell>
        <mxCell id="KyFGuPEpn72uhVAn8gob-22" value="Size&lt;div&gt;256&lt;/div&gt;" style="text;html=1;align=center;verticalAlign=middle;whiteSpace=wrap;rounded=0;" vertex="1" parent="1">
          <mxGeometry x="565" y="300" width="60" height="30" as="geometry" />
        </mxCell>
        <mxCell id="KyFGuPEpn72uhVAn8gob-23" style="edgeStyle=orthogonalEdgeStyle;rounded=0;orthogonalLoop=1;jettySize=auto;html=1;exitX=1;exitY=0.5;exitDx=0;exitDy=0;entryX=0;entryY=0.5;entryDx=0;entryDy=0;shape=flexArrow;fillColor=#e1d5e7;strokeColor=#9673a6;" edge="1" parent="1" target="KyFGuPEpn72uhVAn8gob-24" source="KyFGuPEpn72uhVAn8gob-21">
          <mxGeometry relative="1" as="geometry">
            <mxPoint x="620" y="415" as="sourcePoint" />
          </mxGeometry>
        </mxCell>
        <mxCell id="KyFGuPEpn72uhVAn8gob-29" value="" style="edgeStyle=orthogonalEdgeStyle;rounded=0;orthogonalLoop=1;jettySize=auto;html=1;" edge="1" parent="1" source="KyFGuPEpn72uhVAn8gob-24" target="KyFGuPEpn72uhVAn8gob-27">
          <mxGeometry relative="1" as="geometry" />
        </mxCell>
        <mxCell id="KyFGuPEpn72uhVAn8gob-24" value="Linear" style="rounded=0;whiteSpace=wrap;html=1;fillColor=#e1d5e7;strokeColor=#9673a6;fontSize=11;" vertex="1" parent="1">
          <mxGeometry x="650" y="340" width="50" height="150" as="geometry" />
        </mxCell>
        <mxCell id="KyFGuPEpn72uhVAn8gob-25" value="Size&lt;div&gt;128&lt;/div&gt;" style="text;html=1;align=center;verticalAlign=middle;whiteSpace=wrap;rounded=0;" vertex="1" parent="1">
          <mxGeometry x="645" y="310" width="60" height="30" as="geometry" />
        </mxCell>
        <mxCell id="KyFGuPEpn72uhVAn8gob-26" style="edgeStyle=orthogonalEdgeStyle;rounded=0;orthogonalLoop=1;jettySize=auto;html=1;exitX=1;exitY=0.5;exitDx=0;exitDy=0;entryX=0;entryY=0.5;entryDx=0;entryDy=0;shape=flexArrow;fillColor=#e1d5e7;strokeColor=#9673a6;" edge="1" parent="1" target="KyFGuPEpn72uhVAn8gob-27" source="KyFGuPEpn72uhVAn8gob-24">
          <mxGeometry relative="1" as="geometry">
            <mxPoint x="700" y="415" as="sourcePoint" />
          </mxGeometry>
        </mxCell>
        <mxCell id="KyFGuPEpn72uhVAn8gob-32" value="" style="edgeStyle=orthogonalEdgeStyle;rounded=0;orthogonalLoop=1;jettySize=auto;html=1;" edge="1" parent="1" source="KyFGuPEpn72uhVAn8gob-27" target="KyFGuPEpn72uhVAn8gob-31">
          <mxGeometry relative="1" as="geometry" />
        </mxCell>
        <mxCell id="KyFGuPEpn72uhVAn8gob-27" value="Linear" style="rounded=0;whiteSpace=wrap;html=1;fillColor=#e1d5e7;strokeColor=#9673a6;fontSize=11;" vertex="1" parent="1">
          <mxGeometry x="730" y="350" width="50" height="130" as="geometry" />
        </mxCell>
        <mxCell id="KyFGuPEpn72uhVAn8gob-28" value="Size&lt;div&gt;64&lt;/div&gt;" style="text;html=1;align=center;verticalAlign=middle;whiteSpace=wrap;rounded=0;" vertex="1" parent="1">
          <mxGeometry x="725" y="320" width="60" height="30" as="geometry" />
        </mxCell>
        <mxCell id="KyFGuPEpn72uhVAn8gob-30" style="edgeStyle=orthogonalEdgeStyle;rounded=0;orthogonalLoop=1;jettySize=auto;html=1;entryX=0;entryY=0.5;entryDx=0;entryDy=0;shape=flexArrow;fillColor=#e1d5e7;strokeColor=#9673a6;exitX=1;exitY=0.5;exitDx=0;exitDy=0;" edge="1" parent="1" target="KyFGuPEpn72uhVAn8gob-31" source="KyFGuPEpn72uhVAn8gob-27">
          <mxGeometry relative="1" as="geometry">
            <mxPoint x="780" y="415" as="sourcePoint" />
          </mxGeometry>
        </mxCell>
        <mxCell id="KyFGuPEpn72uhVAn8gob-37" value="" style="edgeStyle=orthogonalEdgeStyle;rounded=0;orthogonalLoop=1;jettySize=auto;html=1;" edge="1" parent="1" source="KyFGuPEpn72uhVAn8gob-31" target="KyFGuPEpn72uhVAn8gob-35">
          <mxGeometry relative="1" as="geometry" />
        </mxCell>
        <mxCell id="KyFGuPEpn72uhVAn8gob-31" value="Linear" style="rounded=0;whiteSpace=wrap;html=1;fillColor=#e1d5e7;strokeColor=#9673a6;fontSize=11;" vertex="1" parent="1">
          <mxGeometry x="810" y="340" width="50" height="150" as="geometry" />
        </mxCell>
        <mxCell id="KyFGuPEpn72uhVAn8gob-33" value="Size&lt;div&gt;128&lt;/div&gt;" style="text;html=1;align=center;verticalAlign=middle;whiteSpace=wrap;rounded=0;" vertex="1" parent="1">
          <mxGeometry x="805" y="310" width="60" height="30" as="geometry" />
        </mxCell>
        <mxCell id="KyFGuPEpn72uhVAn8gob-34" style="edgeStyle=orthogonalEdgeStyle;rounded=0;orthogonalLoop=1;jettySize=auto;html=1;exitX=1;exitY=0.5;exitDx=0;exitDy=0;entryX=0;entryY=0.5;entryDx=0;entryDy=0;shape=flexArrow;fillColor=#e1d5e7;strokeColor=#9673a6;" edge="1" parent="1" target="KyFGuPEpn72uhVAn8gob-35" source="KyFGuPEpn72uhVAn8gob-31">
          <mxGeometry relative="1" as="geometry">
            <mxPoint x="860" y="415" as="sourcePoint" />
          </mxGeometry>
        </mxCell>
        <mxCell id="KyFGuPEpn72uhVAn8gob-40" style="edgeStyle=orthogonalEdgeStyle;rounded=0;orthogonalLoop=1;jettySize=auto;html=1;exitX=1;exitY=0.5;exitDx=0;exitDy=0;entryX=0;entryY=0.5;entryDx=0;entryDy=0;shape=flexArrow;fillColor=#fff2cc;strokeColor=#d6b656;" edge="1" parent="1" source="KyFGuPEpn72uhVAn8gob-35" target="KyFGuPEpn72uhVAn8gob-39">
          <mxGeometry relative="1" as="geometry" />
        </mxCell>
        <mxCell id="KyFGuPEpn72uhVAn8gob-35" value="Linear" style="rounded=0;whiteSpace=wrap;html=1;fillColor=#e1d5e7;strokeColor=#9673a6;fontSize=11;" vertex="1" parent="1">
          <mxGeometry x="890" y="330" width="50" height="170" as="geometry" />
        </mxCell>
        <mxCell id="KyFGuPEpn72uhVAn8gob-36" value="Size&lt;div&gt;256&lt;/div&gt;" style="text;html=1;align=center;verticalAlign=middle;whiteSpace=wrap;rounded=0;" vertex="1" parent="1">
          <mxGeometry x="885" y="300" width="60" height="30" as="geometry" />
        </mxCell>
        <mxCell id="KyFGuPEpn72uhVAn8gob-44" style="edgeStyle=orthogonalEdgeStyle;rounded=0;orthogonalLoop=1;jettySize=auto;html=1;exitX=1;exitY=0.5;exitDx=0;exitDy=0;entryX=0;entryY=0.75;entryDx=0;entryDy=0;shape=flexArrow;fillColor=#dae8fc;strokeColor=#6c8ebf;" edge="1" parent="1" source="KyFGuPEpn72uhVAn8gob-39" target="KyFGuPEpn72uhVAn8gob-41">
          <mxGeometry relative="1" as="geometry" />
        </mxCell>
        <mxCell id="KyFGuPEpn72uhVAn8gob-39" value="K-Means&lt;div&gt;Clustering&lt;/div&gt;" style="rounded=0;whiteSpace=wrap;html=1;fillColor=#fff2cc;strokeColor=#d6b656;fontSize=11;" vertex="1" parent="1">
          <mxGeometry x="970" y="310" width="50" height="210" as="geometry" />
        </mxCell>
        <mxCell id="KyFGuPEpn72uhVAn8gob-45" style="edgeStyle=orthogonalEdgeStyle;rounded=0;orthogonalLoop=1;jettySize=auto;html=1;exitX=1;exitY=0.5;exitDx=0;exitDy=0;entryX=0.5;entryY=1;entryDx=0;entryDy=0;shape=flexArrow;fillColor=#f8cecc;strokeColor=#b85450;" edge="1" parent="1" source="KyFGuPEpn72uhVAn8gob-41" target="KyFGuPEpn72uhVAn8gob-35">
          <mxGeometry relative="1" as="geometry">
            <Array as="points">
              <mxPoint x="1150" y="300" />
              <mxPoint x="1150" y="560" />
              <mxPoint x="915" y="560" />
            </Array>
          </mxGeometry>
        </mxCell>
        <mxCell id="KyFGuPEpn72uhVAn8gob-46" style="edgeStyle=orthogonalEdgeStyle;rounded=0;orthogonalLoop=1;jettySize=auto;html=1;exitX=1;exitY=0.5;exitDx=0;exitDy=0;entryX=0.5;entryY=1;entryDx=0;entryDy=0;shape=flexArrow;fillColor=#f8cecc;strokeColor=#b85450;" edge="1" parent="1" source="KyFGuPEpn72uhVAn8gob-41" target="KyFGuPEpn72uhVAn8gob-31">
          <mxGeometry relative="1" as="geometry">
            <Array as="points">
              <mxPoint x="1150" y="300" />
              <mxPoint x="1150" y="560" />
              <mxPoint x="835" y="560" />
            </Array>
          </mxGeometry>
        </mxCell>
        <mxCell id="KyFGuPEpn72uhVAn8gob-47" style="edgeStyle=orthogonalEdgeStyle;rounded=0;orthogonalLoop=1;jettySize=auto;html=1;exitX=1;exitY=0.5;exitDx=0;exitDy=0;entryX=0.5;entryY=1;entryDx=0;entryDy=0;shape=flexArrow;fillColor=#f8cecc;strokeColor=#b85450;" edge="1" parent="1" source="KyFGuPEpn72uhVAn8gob-41" target="KyFGuPEpn72uhVAn8gob-27">
          <mxGeometry relative="1" as="geometry">
            <Array as="points">
              <mxPoint x="1150" y="300" />
              <mxPoint x="1150" y="560" />
              <mxPoint x="755" y="560" />
            </Array>
          </mxGeometry>
        </mxCell>
        <mxCell id="KyFGuPEpn72uhVAn8gob-48" style="edgeStyle=orthogonalEdgeStyle;rounded=0;orthogonalLoop=1;jettySize=auto;html=1;exitX=1;exitY=0.5;exitDx=0;exitDy=0;entryX=0.5;entryY=1;entryDx=0;entryDy=0;shape=flexArrow;fillColor=#f8cecc;strokeColor=#b85450;" edge="1" parent="1" source="KyFGuPEpn72uhVAn8gob-41" target="KyFGuPEpn72uhVAn8gob-24">
          <mxGeometry relative="1" as="geometry">
            <Array as="points">
              <mxPoint x="1150" y="300" />
              <mxPoint x="1150" y="560" />
              <mxPoint x="675" y="560" />
            </Array>
          </mxGeometry>
        </mxCell>
        <mxCell id="KyFGuPEpn72uhVAn8gob-49" style="edgeStyle=orthogonalEdgeStyle;rounded=0;orthogonalLoop=1;jettySize=auto;html=1;exitX=1;exitY=0.5;exitDx=0;exitDy=0;entryX=0.5;entryY=1;entryDx=0;entryDy=0;shape=flexArrow;fillColor=#f8cecc;strokeColor=#b85450;" edge="1" parent="1" source="KyFGuPEpn72uhVAn8gob-41" target="KyFGuPEpn72uhVAn8gob-21">
          <mxGeometry relative="1" as="geometry">
            <Array as="points">
              <mxPoint x="1150" y="300" />
              <mxPoint x="1150" y="560" />
              <mxPoint x="595" y="560" />
            </Array>
          </mxGeometry>
        </mxCell>
        <mxCell id="KyFGuPEpn72uhVAn8gob-50" style="edgeStyle=orthogonalEdgeStyle;rounded=0;orthogonalLoop=1;jettySize=auto;html=1;exitX=1;exitY=0.5;exitDx=0;exitDy=0;entryX=0.5;entryY=1;entryDx=0;entryDy=0;shape=flexArrow;fillColor=#f8cecc;strokeColor=#b85450;" edge="1" parent="1" source="KyFGuPEpn72uhVAn8gob-41" target="KyFGuPEpn72uhVAn8gob-17">
          <mxGeometry relative="1" as="geometry">
            <Array as="points">
              <mxPoint x="1150" y="300" />
              <mxPoint x="1150" y="560" />
              <mxPoint x="515" y="560" />
            </Array>
          </mxGeometry>
        </mxCell>
        <mxCell id="KyFGuPEpn72uhVAn8gob-51" style="edgeStyle=orthogonalEdgeStyle;rounded=0;orthogonalLoop=1;jettySize=auto;html=1;exitX=1;exitY=0.5;exitDx=0;exitDy=0;entryX=0.5;entryY=1;entryDx=0;entryDy=0;shape=flexArrow;fillColor=#f8cecc;strokeColor=#b85450;" edge="1" parent="1" source="KyFGuPEpn72uhVAn8gob-41" target="KyFGuPEpn72uhVAn8gob-14">
          <mxGeometry relative="1" as="geometry">
            <Array as="points">
              <mxPoint x="1150" y="300" />
              <mxPoint x="1150" y="560" />
              <mxPoint x="435" y="560" />
            </Array>
          </mxGeometry>
        </mxCell>
        <mxCell id="KyFGuPEpn72uhVAn8gob-41" value="&lt;div&gt;Hashed&lt;/div&gt;Cosine&lt;div&gt;Similarity&lt;/div&gt;&lt;div&gt;Within&lt;/div&gt;&lt;div&gt;Clusters&lt;/div&gt;" style="rounded=0;whiteSpace=wrap;html=1;fillColor=#dae8fc;strokeColor=#6c8ebf;fontSize=11;" vertex="1" parent="1">
          <mxGeometry x="1080" y="70" width="50" height="460" as="geometry" />
        </mxCell>
        <mxCell id="KyFGuPEpn72uhVAn8gob-52" value="Backpropagation to maximise cosine similarity" style="text;html=1;align=center;verticalAlign=middle;whiteSpace=wrap;rounded=0;fontSize=14;" vertex="1" parent="1">
          <mxGeometry x="650" y="570" width="330" height="30" as="geometry" />
        </mxCell>
        <mxCell id="KyFGuPEpn72uhVAn8gob-56" value="Default osu2vec Architecture (customizable)" style="text;html=1;align=center;verticalAlign=middle;whiteSpace=wrap;rounded=0;fontSize=24;" vertex="1" parent="1">
          <mxGeometry x="475" y="70" width="400" height="30" as="geometry" />
        </mxCell>
      </root>
    </mxGraphModel>
  </diagram>
</mxfile>
